<svg xmlns="http://www.w3.org/2000/svg" width="940" height="430" font-family="sans-serif">
<rect width="940" height="430" fill="white"/>
<text x="64" y="28" font-size="17" font-weight="bold">Strata por IA — o que FUNCIONA: custo × qualidade × ambiente</text>
<text x="64" y="46" font-size="11.5" fill="#666">só configs que ajudam (≥ neutro). Y = problemas reais − falso-positivos · X = custo (log) · cor = ambiente</text>
<rect x="64" y="70" width="576" height="205" fill="#dcfce7" opacity="0.55"/>
<text x="634" y="85" font-size="10.5" fill="#15803d" text-anchor="end">↑ ajuda de verdade (≥ +0.5)</text>
<line x1="64" y1="344" x2="640" y2="344" stroke="#9ca3af" stroke-dasharray="5,4"/>
<text x="68" y="339" font-size="10" fill="#9ca3af">0 = neutro (não ajuda, não atrapalha)</text>
<line x1="64" y1="70" x2="64" y2="378" stroke="#333"/><line x1="64" y1="378" x2="640" y2="378" stroke="#333"/>
<line x1="104" y1="70" x2="104" y2="378" stroke="#f0f0f0"/>
<text x="104" y="394" font-size="10.5" text-anchor="middle" fill="#666">grátis</text>
<line x1="240" y1="70" x2="240" y2="378" stroke="#f0f0f0"/>
<text x="240" y="394" font-size="10.5" text-anchor="middle" fill="#666">$0.1</text>
<line x1="333" y1="70" x2="333" y2="378" stroke="#f0f0f0"/>
<text x="333" y="394" font-size="10.5" text-anchor="middle" fill="#666">$0.3</text>
<line x1="435" y1="70" x2="435" y2="378" stroke="#f0f0f0"/>
<text x="435" y="394" font-size="10.5" text-anchor="middle" fill="#666">$1</text>
<line x1="528" y1="70" x2="528" y2="378" stroke="#f0f0f0"/>
<text x="528" y="394" font-size="10.5" text-anchor="middle" fill="#666">$3</text>
<line x1="600" y1="70" x2="600" y2="378" stroke="#f0f0f0"/>
<text x="600" y="394" font-size="10.5" text-anchor="middle" fill="#666">$7</text>
<text x="352" y="416" font-size="12" text-anchor="middle" fill="#444">custo por milhão de tokens (escala log) →</text>
<text x="56" y="348" font-size="10" text-anchor="end" fill="#666">+0.0</text>
<text x="56" y="279" font-size="10" text-anchor="end" fill="#666">+0.5</text>
<text x="56" y="211" font-size="10" text-anchor="end" fill="#666">+1.0</text>
<text x="56" y="142" font-size="10" text-anchor="end" fill="#666">+1.5</text>
<text x="56" y="74" font-size="10" text-anchor="end" fill="#666">+2.0</text>
<line x1="600" y1="207" x2="600" y2="70" stroke="#7b3fe4" stroke-width="1.5" opacity="0.3"/>
<circle cx="600" cy="104" r="10" fill="#7b3fe4"/>
<text x="600" y="108" font-size="11" font-weight="bold" fill="#fff" text-anchor="middle">1</text>
<line x1="320" y1="344" x2="320" y2="207" stroke="#7b3fe4" stroke-width="1.5" opacity="0.3"/>
<circle cx="320" cy="275" r="10" fill="#7b3fe4"/>
<text x="320" y="279" font-size="11" font-weight="bold" fill="#fff" text-anchor="middle">2</text>
<line x1="386" y1="481" x2="386" y2="70" stroke="#7b3fe4" stroke-width="1.5" opacity="0.3"/>
<circle cx="386" cy="275" r="10" fill="#7b3fe4"/>
<text x="386" y="279" font-size="11" font-weight="bold" fill="#fff" text-anchor="middle">3</text>
<line x1="466" y1="481" x2="466" y2="207" stroke="#7b3fe4" stroke-width="1.5" opacity="0.3"/>
<circle cx="466" cy="310" r="10" fill="#7b3fe4"/>
<text x="466" y="314" font-size="11" font-weight="bold" fill="#fff" text-anchor="middle">4</text>
<line x1="499" y1="344" x2="499" y2="207" stroke="#7b3fe4" stroke-width="1.5" opacity="0.3"/>
<circle cx="499" cy="310" r="10" fill="#7b3fe4"/>
<text x="499" y="314" font-size="11" font-weight="bold" fill="#fff" text-anchor="middle">5</text>
<line x1="104" y1="344" x2="104" y2="344" stroke="#16a34a" stroke-width="1.5" opacity="0.3"/>
<circle cx="104" cy="344" r="10" fill="#16a34a"/>
<text x="104" y="348" font-size="11" font-weight="bold" fill="#fff" text-anchor="middle">6</text>
<line x1="380" y1="344" x2="380" y2="344" stroke="#7b3fe4" stroke-width="1.5" opacity="0.3"/>
<circle cx="380" cy="344" r="10" fill="#7b3fe4"/>
<text x="380" y="348" font-size="11" font-weight="bold" fill="#fff" text-anchor="middle">7</text>
<line x1="400" y1="481" x2="400" y2="207" stroke="#7b3fe4" stroke-width="1.5" opacity="0.3"/>
<circle cx="400" cy="344" r="10" fill="#7b3fe4"/>
<text x="400" y="348" font-size="11" font-weight="bold" fill="#fff" text-anchor="middle">8</text>
<text x="664" y="72" font-size="12" font-weight="bold">ranking (melhor → pior)</text>
<circle cx="672" cy="90" r="9" fill="#7b3fe4"/><text x="672" y="94" font-size="10.5" font-weight="bold" fill="#fff" text-anchor="middle">1</text>
<text x="688" y="92" font-size="11.5" font-weight="bold">claude-opus-4.8 (+1.8)</text>
<text x="688" y="105" font-size="9.5" fill="#666">API paga · $7.00/M · varia [+1,+2]</text>
<circle cx="672" cy="120" r="9" fill="#7b3fe4"/><text x="672" y="124" font-size="10.5" font-weight="bold" fill="#fff" text-anchor="middle">2</text>
<text x="688" y="122" font-size="11.5" font-weight="bold">deepseek-chat-v3 +etapas (+0.5)</text>
<text x="688" y="135" font-size="9.5" fill="#666">API paga · $0.26/M · varia [+0,+1]</text>
<circle cx="672" cy="150" r="9" fill="#7b3fe4"/><text x="672" y="154" font-size="10.5" font-weight="bold" fill="#fff" text-anchor="middle">3</text>
<text x="688" y="152" font-size="11.5" font-weight="bold">glm-4.6 (+0.5)</text>
<text x="688" y="165" font-size="9.5" fill="#666">API paga · $0.56/M · varia [-1,+2]</text>
<circle cx="672" cy="180" r="9" fill="#7b3fe4"/><text x="672" y="184" font-size="10.5" font-weight="bold" fill="#fff" text-anchor="middle">4</text>
<text x="688" y="182" font-size="11.5" font-weight="bold">o4-mini (+0.2)</text>
<text x="688" y="195" font-size="9.5" fill="#666">API paga · $1.43/M · varia [-1,+1]</text>
<circle cx="672" cy="210" r="9" fill="#7b3fe4"/><text x="672" y="214" font-size="10.5" font-weight="bold" fill="#fff" text-anchor="middle">5</text>
<text x="688" y="212" font-size="11.5" font-weight="bold">gpt-5 (+0.2)</text>
<text x="688" y="225" font-size="9.5" fill="#666">API paga · $2.12/M · varia [+0,+1]</text>
<circle cx="672" cy="240" r="9" fill="#16a34a"/><text x="672" y="244" font-size="10.5" font-weight="bold" fill="#fff" text-anchor="middle">6</text>
<text x="688" y="242" font-size="11.5" font-weight="bold">qwen3_4b-thinking (+0.0)</text>
<text x="688" y="255" font-size="9.5" fill="#666">local/grátis · grátis · estável</text>
<circle cx="672" cy="270" r="9" fill="#7b3fe4"/><text x="672" y="274" font-size="10.5" font-weight="bold" fill="#fff" text-anchor="middle">7</text>
<text x="688" y="272" font-size="11.5" font-weight="bold">gpt-4.1-mini (+0.0)</text>
<text x="688" y="285" font-size="9.5" fill="#666">API paga · $0.52/M · estável</text>
<circle cx="672" cy="300" r="9" fill="#7b3fe4"/><text x="672" y="304" font-size="10.5" font-weight="bold" fill="#fff" text-anchor="middle">8</text>
<text x="688" y="302" font-size="11.5" font-weight="bold">gemini-2.5-flash +etapas (+0.0)</text>
<text x="688" y="315" font-size="9.5" fill="#666">API paga · $0.52/M · varia [-1,+1]</text>
</svg>